<svg xmlns="http://www.w3.org/2000/svg" viewBox="0 0 1200 750" width="1200" height="750">

<defs>
  <linearGradient id="bgevents" x1="0" y1="0" x2="1" y2="1">
    <stop offset="0" stop-color="#153a61"/><stop offset="0.55" stop-color="#0b1f3a"/><stop offset="1" stop-color="#040c1a"/>
  </linearGradient>
  <linearGradient id="accevents" x1="0" y1="0" x2="1" y2="1">
    <stop offset="0" stop-color="#f472b6"/><stop offset="1" stop-color="#c9a227"/>
  </linearGradient>
  <linearGradient id="goldevents" x1="0" y1="0" x2="1" y2="0">
    <stop offset="0" stop-color="#e1c45c"/><stop offset="1" stop-color="#a4841c"/>
  </linearGradient>
  <radialGradient id="glowevents" cx="0.5" cy="0.5" r="0.5">
    <stop offset="0" stop-color="#f472b6" stop-opacity="0.55"/><stop offset="1" stop-color="#f472b6" stop-opacity="0"/>
  </radialGradient>
  <filter id="shadowevents" x="-20%" y="-20%" width="140%" height="140%">
    <feDropShadow dx="0" dy="24" stdDeviation="24" flood-color="#000" flood-opacity="0.45"/>
  </filter>
  <pattern id="gridevents" width="34" height="34" patternUnits="userSpaceOnUse">
    <path d="M34 0H0V34" fill="none" stroke="#c9a227" stroke-opacity="0.09"/>
  </pattern>
</defs>
<rect width="1200" height="750" fill="url(#bgevents)"/>
<rect width="1200" height="750" fill="url(#gridevents)"/>
<circle cx="980" cy="120" r="360" fill="url(#glowevents)"/>
<circle cx="180" cy="680" r="300" fill="url(#glowevents)" opacity="0.6"/>

<g filter="url(#shadowevents)">
  <rect x="90" y="70" width="1020" height="610" rx="18" fill="#0d2342" stroke="#ffffff" stroke-opacity="0.12"/>
  <rect x="90" y="70" width="1020" height="44" rx="18" fill="#102b4c"/>
  <rect x="90" y="96" width="1020" height="18" fill="#102b4c"/>
  <circle cx="114" cy="92" r="6" fill="#ff5f57"/><circle cx="134" cy="92" r="6" fill="#febc2e"/><circle cx="154" cy="92" r="6" fill="#28c840"/>
  <rect x="190" y="82" width="820" height="20" rx="10" fill="#0b1f3a"/>
  <g transform="translate(90,114)"><rect x="0" y="0" width="200" height="560" fill="#0b1f3a"/><text x="24" y="44" font-family="Manrope, Arial, sans-serif" font-size="18" font-weight="700" fill="#c9a227" >◆</text><text x="50" y="44" font-family="Manrope, Arial, sans-serif" font-size="15" font-weight="800" fill="#f7f3ea" >Dashboard</text><rect x="16" y="80" width="168" height="34" rx="8" fill="#f472b6" opacity="0.25"/><rect x="30" y="92" width="12" height="12" rx="3" fill="#f472b6" opacity="1"/><rect x="52" y="92" width="80" height="10" rx="4" fill="#f7f3ea" opacity="0.9"/><rect x="16" y="126" width="168" height="34" rx="8" fill="#ffffff" opacity="0.04"/><rect x="30" y="138" width="12" height="12" rx="3" fill="#8fa4bd" opacity="1"/><rect x="52" y="138" width="100" height="10" rx="4" fill="#8fa4bd" opacity="0.9"/><rect x="16" y="172" width="168" height="34" rx="8" fill="#ffffff" opacity="0.04"/><rect x="30" y="184" width="12" height="12" rx="3" fill="#8fa4bd" opacity="1"/><rect x="52" y="184" width="120" height="10" rx="4" fill="#8fa4bd" opacity="0.9"/><rect x="16" y="218" width="168" height="34" rx="8" fill="#ffffff" opacity="0.04"/><rect x="30" y="230" width="12" height="12" rx="3" fill="#8fa4bd" opacity="1"/><rect x="52" y="230" width="80" height="10" rx="4" fill="#8fa4bd" opacity="0.9"/><rect x="16" y="264" width="168" height="34" rx="8" fill="#ffffff" opacity="0.04"/><rect x="30" y="276" width="12" height="12" rx="3" fill="#8fa4bd" opacity="1"/><rect x="52" y="276" width="100" height="10" rx="4" fill="#8fa4bd" opacity="0.9"/><rect x="220" y="20" width="200" height="90" rx="14" fill="#102b4c" stroke="#ffffff" stroke-opacity="0.08" /><text x="238" y="50" font-family="Manrope, Arial, sans-serif" font-size="12" font-weight="600" fill="#8fa4bd" >Billets vendus</text><text x="238" y="88" font-family="Manrope, Arial, sans-serif" font-size="28" font-weight="800" fill="#f7f3ea" >1 248</text><rect x="370" y="40" width="32" height="32" rx="8" fill="#f472b6" opacity="0.25"/><circle cx="386" cy="56" r="6" fill="#f472b6"/><rect x="440" y="20" width="200" height="90" rx="14" fill="#102b4c" stroke="#ffffff" stroke-opacity="0.08" /><text x="458" y="50" font-family="Manrope, Arial, sans-serif" font-size="12" font-weight="600" fill="#8fa4bd" >Revenus</text><text x="458" y="88" font-family="Manrope, Arial, sans-serif" font-size="28" font-weight="800" fill="#f7f3ea" >3,2 M F</text><rect x="590" y="40" width="32" height="32" rx="8" fill="#c9a227" opacity="0.25"/><circle cx="606" cy="56" r="6" fill="#c9a227"/><rect x="660" y="20" width="200" height="90" rx="14" fill="#102b4c" stroke="#ffffff" stroke-opacity="0.08" /><text x="678" y="50" font-family="Manrope, Arial, sans-serif" font-size="12" font-weight="600" fill="#8fa4bd" >Taux présence</text><text x="678" y="88" font-family="Manrope, Arial, sans-serif" font-size="28" font-weight="800" fill="#f7f3ea" >87 %</text><rect x="810" y="40" width="32" height="32" rx="8" fill="#34d399" opacity="0.25"/><circle cx="826" cy="56" r="6" fill="#34d399"/><rect x="220" y="130" width="440" height="400" rx="14" fill="#102b4c" stroke="#ffffff" stroke-opacity="0.08" /><text x="238" y="160" font-family="Manrope, Arial, sans-serif" font-size="15" font-weight="800" fill="#f7f3ea" >Septembre 2026</text><text x="250" y="190" font-family="Manrope, Arial, sans-serif" font-size="11" font-weight="700" fill="#8fa4bd" >L</text><text x="310" y="190" font-family="Manrope, Arial, sans-serif" font-size="11" font-weight="700" fill="#8fa4bd" >M</text><text x="370" y="190" font-family="Manrope, Arial, sans-serif" font-size="11" font-weight="700" fill="#8fa4bd" >M</text><text x="430" y="190" font-family="Manrope, Arial, sans-serif" font-size="11" font-weight="700" fill="#8fa4bd" >J</text><text x="490" y="190" font-family="Manrope, Arial, sans-serif" font-size="11" font-weight="700" fill="#8fa4bd" >V</text><text x="550" y="190" font-family="Manrope, Arial, sans-serif" font-size="11" font-weight="700" fill="#8fa4bd" >S</text><text x="610" y="190" font-family="Manrope, Arial, sans-serif" font-size="11" font-weight="700" fill="#8fa4bd" >D</text><rect x="240" y="205" width="52" height="52" rx="10" fill="#ffffff" opacity="0.04"/><text x="250" y="225" font-family="Manrope, Arial, sans-serif" font-size="11" font-weight="700" fill="#8fa4bd" >1</text><rect x="300" y="205" width="52" height="52" rx="10" fill="#ffffff" opacity="0.04"/><text x="310" y="225" font-family="Manrope, Arial, sans-serif" font-size="11" font-weight="700" fill="#8fa4bd" >2</text><rect x="360" y="205" width="52" height="52" rx="10" fill="#ffffff" opacity="0.04"/><text x="370" y="225" font-family="Manrope, Arial, sans-serif" font-size="11" font-weight="700" fill="#8fa4bd" >3</text><rect x="420" y="205" width="52" height="52" rx="10" fill="#ffffff" opacity="0.04"/><text x="430" y="225" font-family="Manrope, Arial, sans-serif" font-size="11" font-weight="700" fill="#8fa4bd" >4</text><rect x="480" y="205" width="52" height="52" rx="10" fill="#f472b6" opacity="0.9"/><text x="490" y="225" font-family="Manrope, Arial, sans-serif" font-size="11" font-weight="700" fill="#0b1f3a" >5</text><rect x="490" y="240" width="30" height="5" rx="2" fill="#0b1f3a" opacity="0.6"/><rect x="540" y="205" width="52" height="52" rx="10" fill="#ffffff" opacity="0.04"/><text x="550" y="225" font-family="Manrope, Arial, sans-serif" font-size="11" font-weight="700" fill="#8fa4bd" >6</text><rect x="600" y="205" width="52" height="52" rx="10" fill="#ffffff" opacity="0.04"/><text x="610" y="225" font-family="Manrope, Arial, sans-serif" font-size="11" font-weight="700" fill="#8fa4bd" >7</text><rect x="240" y="267" width="52" height="52" rx="10" fill="#ffffff" opacity="0.04"/><text x="250" y="287" font-family="Manrope, Arial, sans-serif" font-size="11" font-weight="700" fill="#8fa4bd" >8</text><rect x="300" y="267" width="52" height="52" rx="10" fill="#ffffff" opacity="0.04"/><text x="310" y="287" font-family="Manrope, Arial, sans-serif" font-size="11" font-weight="700" fill="#8fa4bd" >9</text><rect x="360" y="267" width="52" height="52" rx="10" fill="#ffffff" opacity="0.04"/><text x="370" y="287" font-family="Manrope, Arial, sans-serif" font-size="11" font-weight="700" fill="#8fa4bd" >10</text><rect x="420" y="267" width="52" height="52" rx="10" fill="#ffffff" opacity="0.04"/><text x="430" y="287" font-family="Manrope, Arial, sans-serif" font-size="11" font-weight="700" fill="#8fa4bd" >11</text><rect x="480" y="267" width="52" height="52" rx="10" fill="#f472b6" opacity="0.9"/><text x="490" y="287" font-family="Manrope, Arial, sans-serif" font-size="11" font-weight="700" fill="#0b1f3a" >12</text><rect x="490" y="302" width="30" height="5" rx="2" fill="#0b1f3a" opacity="0.6"/><rect x="540" y="267" width="52" height="52" rx="10" fill="#ffffff" opacity="0.04"/><text x="550" y="287" font-family="Manrope, Arial, sans-serif" font-size="11" font-weight="700" fill="#8fa4bd" >13</text><rect x="600" y="267" width="52" height="52" rx="10" fill="#ffffff" opacity="0.04"/><text x="610" y="287" font-family="Manrope, Arial, sans-serif" font-size="11" font-weight="700" fill="#8fa4bd" >14</text><rect x="240" y="329" width="52" height="52" rx="10" fill="#ffffff" opacity="0.04"/><text x="250" y="349" font-family="Manrope, Arial, sans-serif" font-size="11" font-weight="700" fill="#8fa4bd" >15</text><rect x="300" y="329" width="52" height="52" rx="10" fill="#ffffff" opacity="0.04"/><text x="310" y="349" font-family="Manrope, Arial, sans-serif" font-size="11" font-weight="700" fill="#8fa4bd" >16</text><rect x="360" y="329" width="52" height="52" rx="10" fill="#ffffff" opacity="0.04"/><text x="370" y="349" font-family="Manrope, Arial, sans-serif" font-size="11" font-weight="700" fill="#8fa4bd" >17</text><rect x="420" y="329" width="52" height="52" rx="10" fill="#f472b6" opacity="0.9"/><text x="430" y="349" font-family="Manrope, Arial, sans-serif" font-size="11" font-weight="700" fill="#0b1f3a" >18</text><rect x="430" y="364" width="30" height="5" rx="2" fill="#0b1f3a" opacity="0.6"/><rect x="480" y="329" width="52" height="52" rx="10" fill="#f472b6" opacity="0.9"/><text x="490" y="349" font-family="Manrope, Arial, sans-serif" font-size="11" font-weight="700" fill="#0b1f3a" >19</text><rect x="490" y="364" width="30" height="5" rx="2" fill="#0b1f3a" opacity="0.6"/><rect x="540" y="329" width="52" height="52" rx="10" fill="#ffffff" opacity="0.04"/><text x="550" y="349" font-family="Manrope, Arial, sans-serif" font-size="11" font-weight="700" fill="#8fa4bd" >20</text><rect x="600" y="329" width="52" height="52" rx="10" fill="#ffffff" opacity="0.04"/><text x="610" y="349" font-family="Manrope, Arial, sans-serif" font-size="11" font-weight="700" fill="#8fa4bd" >21</text><rect x="240" y="391" width="52" height="52" rx="10" fill="#ffffff" opacity="0.04"/><text x="250" y="411" font-family="Manrope, Arial, sans-serif" font-size="11" font-weight="700" fill="#8fa4bd" >22</text><rect x="300" y="391" width="52" height="52" rx="10" fill="#ffffff" opacity="0.04"/><text x="310" y="411" font-family="Manrope, Arial, sans-serif" font-size="11" font-weight="700" fill="#8fa4bd" >23</text><rect x="360" y="391" width="52" height="52" rx="10" fill="#ffffff" opacity="0.04"/><text x="370" y="411" font-family="Manrope, Arial, sans-serif" font-size="11" font-weight="700" fill="#8fa4bd" >24</text><rect x="420" y="391" width="52" height="52" rx="10" fill="#ffffff" opacity="0.04"/><text x="430" y="411" font-family="Manrope, Arial, sans-serif" font-size="11" font-weight="700" fill="#8fa4bd" >25</text><rect x="480" y="391" width="52" height="52" rx="10" fill="#f472b6" opacity="0.9"/><text x="490" y="411" font-family="Manrope, Arial, sans-serif" font-size="11" font-weight="700" fill="#0b1f3a" >26</text><rect x="490" y="426" width="30" height="5" rx="2" fill="#0b1f3a" opacity="0.6"/><rect x="540" y="391" width="52" height="52" rx="10" fill="#ffffff" opacity="0.04"/><text x="550" y="411" font-family="Manrope, Arial, sans-serif" font-size="11" font-weight="700" fill="#8fa4bd" >27</text><rect x="600" y="391" width="52" height="52" rx="10" fill="#ffffff" opacity="0.04"/><text x="610" y="411" font-family="Manrope, Arial, sans-serif" font-size="11" font-weight="700" fill="#8fa4bd" >28</text><rect x="240" y="453" width="52" height="52" rx="10" fill="#ffffff" opacity="0.04"/><text x="250" y="473" font-family="Manrope, Arial, sans-serif" font-size="11" font-weight="700" fill="#8fa4bd" >29</text><rect x="300" y="453" width="52" height="52" rx="10" fill="#ffffff" opacity="0.04"/><text x="310" y="473" font-family="Manrope, Arial, sans-serif" font-size="11" font-weight="700" fill="#8fa4bd" >30</text><rect x="360" y="453" width="52" height="52" rx="10" fill="#ffffff" opacity="0.04"/><text x="370" y="473" font-family="Manrope, Arial, sans-serif" font-size="11" font-weight="700" fill="#8fa4bd" ></text><rect x="420" y="453" width="52" height="52" rx="10" fill="#ffffff" opacity="0.04"/><text x="430" y="473" font-family="Manrope, Arial, sans-serif" font-size="11" font-weight="700" fill="#8fa4bd" ></text><rect x="480" y="453" width="52" height="52" rx="10" fill="#ffffff" opacity="0.04"/><text x="490" y="473" font-family="Manrope, Arial, sans-serif" font-size="11" font-weight="700" fill="#8fa4bd" ></text><rect x="540" y="453" width="52" height="52" rx="10" fill="#ffffff" opacity="0.04"/><text x="550" y="473" font-family="Manrope, Arial, sans-serif" font-size="11" font-weight="700" fill="#8fa4bd" ></text><rect x="600" y="453" width="52" height="52" rx="10" fill="#ffffff" opacity="0.04"/><text x="610" y="473" font-family="Manrope, Arial, sans-serif" font-size="11" font-weight="700" fill="#8fa4bd" ></text><g transform="translate(690,140) rotate(4)">
    <rect x="0" y="0" width="280" height="150" rx="16" fill="url(#goldevents)"/>
    <circle cx="0" cy="75" r="12" fill="#0d2342"/><circle cx="280" cy="75" r="12" fill="#0d2342"/>
    <text x="22" y="36" font-family="Manrope, Arial, sans-serif" font-size="13" font-weight="800" fill="#0b1f3a" >TECH SUMMIT COTONOU</text>
    <text x="22" y="62" font-family="Manrope, Arial, sans-serif" font-size="12" font-weight="600" fill="#0b1f3a" >18 sept. · 09:00</text>
    <text x="22" y="84" font-family="Manrope, Arial, sans-serif" font-size="12" font-weight="600" fill="#0b1f3a" >Siège · Place A12</text>
    <rect x="22" y="100" width="150" height="34" rx="6" fill="#0b1f3a" opacity="0.15"/>
    <text x="30" y="122" font-family="Manrope, Arial, sans-serif" font-size="11" font-weight="700" fill="#0b1f3a" >#TSC-2026-01248</text>
    <rect x="196" y="40" width="64" height="64" rx="8" fill="#0b1f3a"/>
    <rect x="216" y="46" width="10" height="10" fill="#f7f3ea"/><rect x="244" y="46" width="10" height="10" fill="#f7f3ea"/><rect x="202" y="60" width="10" height="10" fill="#f7f3ea"/><rect x="230" y="60" width="10" height="10" fill="#f7f3ea"/><rect x="216" y="74" width="10" height="10" fill="#f7f3ea"/><rect x="244" y="74" width="10" height="10" fill="#f7f3ea"/><rect x="202" y="88" width="10" height="10" fill="#f7f3ea"/><rect x="230" y="88" width="10" height="10" fill="#f7f3ea"/>
  </g><rect x="690" y="320" width="290" height="196" rx="14" fill="#102b4c" stroke="#ffffff" stroke-opacity="0.08" /><text x="708" y="348" font-family="Manrope, Arial, sans-serif" font-size="13" font-weight="700" fill="#f7f3ea" >Dernières activités</text><circle cx="724" cy="388" r="14" fill="#f472b6" opacity="0.25"/><circle cx="724" cy="388" r="5" fill="#f472b6"/><text x="750" y="385" font-family="Manrope, Arial, sans-serif" font-size="13" font-weight="700" fill="#f7f3ea" >Tech Summit</text><text x="750" y="402" font-family="Manrope, Arial, sans-serif" font-size="11" font-weight="500" fill="#8fa4bd" >1 248 inscrits</text><rect x="890" y="378" width="70" height="22" rx="11" fill="#f472b6" opacity="0.2"/><text x="902" y="393" font-family="Manrope, Arial, sans-serif" font-size="10" font-weight="700" fill="#f472b6" >Live</text><circle cx="724" cy="440" r="14" fill="#c9a227" opacity="0.25"/><circle cx="724" cy="440" r="5" fill="#c9a227"/><text x="750" y="437" font-family="Manrope, Arial, sans-serif" font-size="13" font-weight="700" fill="#f7f3ea" >Afterwork Dev</text><text x="750" y="454" font-family="Manrope, Arial, sans-serif" font-size="11" font-weight="500" fill="#8fa4bd" >86 inscrits</text><rect x="890" y="430" width="70" height="22" rx="11" fill="#c9a227" opacity="0.2"/><text x="902" y="445" font-family="Manrope, Arial, sans-serif" font-size="10" font-weight="700" fill="#c9a227" >Bientôt</text><circle cx="724" cy="492" r="14" fill="#34d399" opacity="0.25"/><circle cx="724" cy="492" r="5" fill="#34d399"/><text x="750" y="489" font-family="Manrope, Arial, sans-serif" font-size="13" font-weight="700" fill="#f7f3ea" >Meetup Data</text><text x="750" y="506" font-family="Manrope, Arial, sans-serif" font-size="11" font-weight="500" fill="#8fa4bd" >312 inscrits</text><rect x="890" y="482" width="70" height="22" rx="11" fill="#34d399" opacity="0.2"/><text x="902" y="497" font-family="Manrope, Arial, sans-serif" font-size="10" font-weight="700" fill="#34d399" >Fini</text></g>
</g><g filter="url(#shadowevents)"><rect x="60" y="640" width="148" height="40" rx="20" fill="url(#goldevents)"/><text x="80" y="666" font-family="Manrope, Arial, sans-serif" font-size="14" font-weight="800" fill="#0b1f3a" >Multi-tenant</text></g>
</svg>